<?xml version="1.0" standalone="no"?>
<!DOCTYPE svg PUBLIC "-//W3C//DTD SVG 20010904//EN"
 "http://www.w3.org/TR/2001/REC-SVG-20010904/DTD/svg10.dtd">
<svg version="1.0" xmlns="http://www.w3.org/2000/svg"
 width="612.000000pt" height="408.000000pt" viewBox="0 0 612.000000 408.000000"
 preserveAspectRatio="xMidYMid meet">

<g transform="translate(0.000000,408.000000) scale(0.100000,-0.100000)"
fill="#000000" stroke="none">
<path d="M2617 2941 c58 -36 58 -38 58 -375 l0 -308 -35 -29 -34 -29 89 0 90
0 -32 20 c-18 11 -35 30 -38 42 -3 13 -4 141 -3 286 l3 263 170 -260 c94 -143
172 -260 175 -260 8 -1 70 105 70 119 0 6 -37 71 -82 143 -46 72 -121 192
-168 266 l-86 136 -104 3 -105 2 32 -19z"/>
<path d="M3364 2942 c-26 -17 -238 -412 -227 -423 6 -6 39 43 82 121 40 71 75
130 77 130 2 0 4 -115 4 -255 l0 -256 -25 -24 -24 -25 111 0 c110 0 110 0 87
19 l-24 19 0 332 0 332 24 19 23 19 -48 0 c-27 0 -54 -4 -60 -8z"/>
<path d="M1387 2023 c-4 -3 -7 -62 -7 -130 0 -116 1 -123 20 -123 17 0 19 8
22 87 l3 87 38 -62 c21 -34 44 -62 50 -62 7 0 31 30 54 68 l43 67 0 -92 c0
-76 3 -93 15 -93 13 0 15 21 15 130 0 82 -4 130 -10 130 -6 0 -31 -33 -57 -72
-25 -40 -49 -77 -54 -82 -4 -5 -31 28 -59 73 -51 79 -60 88 -73 74z"/>
<path d="M1800 1900 c0 -123 1 -130 20 -130 19 0 20 7 20 130 0 123 -1 130
-20 130 -19 0 -20 -7 -20 -130z"/>
<path d="M2008 2024 c-5 -4 -8 -63 -8 -131 0 -116 1 -123 20 -123 17 0 20 7
20 44 0 74 43 70 86 -9 13 -25 25 -35 42 -35 27 0 30 -8 -25 77 -13 20 -14 28
-5 31 45 15 58 94 21 128 -21 19 -137 33 -151 18z m114 -36 c8 -7 18 -21 22
-31 9 -26 -36 -67 -74 -67 -30 0 -30 0 -30 55 l0 55 33 0 c18 0 40 -6 49 -12z"/>
<path d="M2403 2018 c-7 -10 -57 -126 -100 -235 -3 -8 3 -13 15 -13 13 0 24
10 31 30 10 29 12 30 70 30 57 0 59 -1 70 -30 6 -20 17 -30 30 -30 23 0 26
-11 -39 144 -47 111 -59 127 -77 104z m36 -95 c8 -21 16 -44 18 -50 4 -9 -7
-13 -36 -13 -23 0 -41 3 -41 7 0 15 33 93 39 93 4 0 13 -17 20 -37z"/>
<path d="M2724 2020 c-11 -4 -33 -22 -47 -40 -22 -26 -27 -42 -27 -85 0 -48 4
-58 34 -88 39 -40 82 -50 144 -35 l42 10 0 59 0 59 -40 0 c-29 0 -40 -4 -40
-15 0 -9 10 -15 26 -15 23 0 25 -3 22 -32 -3 -31 -6 -33 -46 -36 -55 -4 -88
17 -101 64 -11 41 3 88 33 114 20 16 79 19 114 7 18 -7 22 -5 22 11 0 30 -84
43 -136 22z"/>
<path d="M3030 1900 l0 -130 80 0 c64 0 80 3 80 15 0 12 -14 15 -65 15 l-65 0
0 40 0 40 60 0 c46 0 60 3 60 15 0 10 -15 15 -57 17 l-58 3 0 40 0 40 63 3
c46 2 62 7 62 17 0 12 -17 15 -80 15 l-80 0 0 -130z"/>
<path d="M4410 2013 c0 -8 15 -13 40 -13 l40 0 0 -115 c0 -96 3 -115 15 -115
12 0 15 19 15 115 l0 115 40 0 c22 0 40 4 40 9 0 5 -43 11 -95 13 -71 2 -95 0
-95 -9z"/>
<path d="M3350 1895 c0 -103 3 -125 15 -125 11 0 15 19 17 93 l3 92 43 -67
c23 -38 47 -68 53 -68 5 0 29 30 52 67 l42 68 3 -93 c2 -73 6 -92 17 -92 12 0
15 22 15 125 0 99 -3 125 -14 125 -7 0 -35 -34 -61 -75 -26 -41 -50 -75 -54
-75 -4 0 -29 34 -55 75 -68 107 -76 102 -76 -50z"/>
<path d="M3784 1895 c-44 -107 -49 -125 -34 -125 11 0 22 12 29 30 10 29 12
30 71 30 59 0 62 -1 73 -30 7 -18 19 -30 29 -30 17 0 17 3 -1 48 -61 154 -85
202 -100 202 -11 0 -32 -39 -67 -125z m94 18 l20 -53 -44 0 c-29 0 -44 4 -44
13 1 16 39 101 44 96 2 -2 13 -28 24 -56z"/>
<path d="M4100 1895 c0 -102 3 -125 14 -125 11 0 16 14 18 48 3 40 6 47 25 50
18 3 30 -7 54 -47 21 -33 39 -51 51 -51 19 0 19 2 -3 38 -12 20 -26 41 -31 47
-12 14 -10 25 6 25 19 0 46 39 46 66 0 12 -9 33 -21 48 -19 24 -27 26 -90 26
l-69 0 0 -125z m121 95 c25 -14 25 -61 0 -84 -12 -11 -31 -16 -53 -14 -30 3
-33 6 -36 42 -2 21 -1 44 2 52 6 16 59 19 87 4z"/>
<path d="M1992 1603 c10 -2 18 -17 21 -36 l4 -32 1 32 c1 21 8 33 20 36 9 3
-1 5 -23 5 -22 0 -32 -2 -23 -5z"/>
<path d="M2103 1578 c1 -26 7 -34 26 -36 13 -2 28 2 32 10 12 18 11 58 -1 58
-5 0 -10 -13 -10 -30 0 -23 -5 -30 -19 -30 -14 0 -21 9 -25 30 -6 30 -6 30 -3
-2z"/>
<path d="M2280 1575 c0 -32 3 -35 28 -34 16 1 20 3 10 6 -10 2 -18 8 -18 13 0
5 8 11 18 13 16 4 16 5 0 6 -26 2 -22 19 5 24 16 3 13 5 -10 6 -31 1 -33 -1
-33 -34z"/>
<path d="M2390 1594 c0 -9 9 -18 20 -21 27 -7 25 -21 -2 -26 -20 -4 -19 -4 5
-6 30 -1 39 25 12 35 -20 8 -19 21 3 27 10 3 6 5 -10 6 -19 1 -28 -4 -28 -15z"/>
<path d="M2492 1603 c10 -2 18 -17 21 -36 l4 -32 1 32 c1 21 8 33 20 36 9 3
-1 5 -23 5 -22 0 -32 -2 -23 -5z"/>
<path d="M2603 1575 c0 -22 2 -30 4 -17 2 12 2 30 0 40 -3 9 -5 -1 -4 -23z"/>
<path d="M2672 1573 c-2 -38 0 -41 21 -35 17 5 18 7 5 10 -10 2 -18 15 -21 35
-3 28 -4 26 -5 -10z"/>
<path d="M2760 1589 c-15 -27 4 -51 38 -47 33 4 50 31 33 52 -19 23 -58 20
-71 -5z m60 -14 c0 -18 -5 -25 -19 -25 -11 0 -23 5 -26 10 -11 18 3 40 25 40
15 0 20 -7 20 -25z"/>
<path d="M3002 1603 c10 -2 18 -17 21 -36 l4 -32 1 32 c1 21 8 33 20 36 9 3
-1 5 -23 5 -22 0 -32 -2 -23 -5z"/>
<path d="M3103 1580 c2 -29 6 -36 26 -38 13 -2 28 2 32 10 12 18 11 58 -1 58
-5 0 -10 -14 -10 -31 0 -41 -32 -36 -42 6 -6 29 -6 29 -5 -5z"/>
<path d="M3291 1573 c1 -33 2 -34 8 -13 7 24 7 24 19 5 12 -19 12 -19 26 -2
14 18 15 17 19 -5 3 -14 5 -7 5 17 l1 40 -19 -23 c-19 -23 -19 -23 -30 -2 -17
31 -30 24 -29 -17z"/>
<path d="M3433 1580 c2 -30 6 -35 29 -38 22 -3 27 2 33 28 4 17 5 34 2 36 -2
3 -7 -9 -11 -26 -8 -41 -38 -37 -48 5 -6 29 -6 29 -5 -5z"/>
<path d="M3551 1573 c1 -37 2 -37 8 -8 l7 30 18 -27 c25 -38 36 -35 35 10 -1
35 -2 36 -8 7 l-6 -29 -18 27 c-24 37 -37 34 -36 -10z"/>
<path d="M3680 1574 c0 -32 2 -35 26 -32 56 6 53 68 -2 68 -21 0 -24 -5 -24
-36z m53 14 c7 -21 -4 -38 -24 -38 -14 0 -19 7 -19 25 0 18 5 25 19 25 11 0
21 -6 24 -12z"/>
<path d="M3795 1591 c-9 -31 5 -51 36 -51 22 0 30 6 35 24 8 34 -2 46 -36 46
-19 0 -31 -6 -35 -19z m59 -7 c8 -21 -1 -34 -24 -34 -22 0 -34 15 -26 35 7 20
42 19 50 -1z"/>
</g>
</svg>
